<mxfile host="app.diagrams.net" agent="Mozilla/5.0 (Windows NT 10.0; Win64; x64) AppleWebKit/537.36 (KHTML, like Gecko) Chrome/135.0.0.0 Safari/537.36" version="26.2.13">
  <diagram id="C5RBs43oDa-KdzZeNtuy" name="Page-1">
    <mxGraphModel dx="2255" dy="743" grid="1" gridSize="10" guides="1" tooltips="1" connect="1" arrows="1" fold="1" page="1" pageScale="1" pageWidth="827" pageHeight="1169" math="0" shadow="0">
      <root>
        <mxCell id="WIyWlLk6GJQsqaUBKTNV-0" />
        <mxCell id="WIyWlLk6GJQsqaUBKTNV-1" parent="WIyWlLk6GJQsqaUBKTNV-0" />
        <mxCell id="UA6mBIjiZuDujGgCD-i7-12" value="&lt;span style=&quot;font-weight: 400;&quot;&gt;&amp;lt;&amp;lt;UsuÃ¡rio&amp;gt;&amp;gt;&lt;/span&gt;" style="swimlane;fontStyle=1;align=center;verticalAlign=top;childLayout=stackLayout;horizontal=1;startSize=26;horizontalStack=0;resizeParent=1;resizeParentMax=0;resizeLast=0;collapsible=1;marginBottom=0;whiteSpace=wrap;html=1;" parent="WIyWlLk6GJQsqaUBKTNV-1" vertex="1">
          <mxGeometry x="380" y="130" width="160" height="170" as="geometry" />
        </mxCell>
        <mxCell id="UA6mBIjiZuDujGgCD-i7-13" value="-nome: String&lt;div&gt;-senha: String&lt;br&gt;&lt;div&gt;-metaDeCalorias: int&lt;/div&gt;&lt;div&gt;&lt;div&gt;&lt;br&gt;&lt;/div&gt;&lt;/div&gt;&lt;/div&gt;" style="text;strokeColor=none;fillColor=none;align=left;verticalAlign=top;spacingLeft=4;spacingRight=4;overflow=hidden;rotatable=0;points=[[0,0.5],[1,0.5]];portConstraint=eastwest;whiteSpace=wrap;html=1;" parent="UA6mBIjiZuDujGgCD-i7-12" vertex="1">
          <mxGeometry y="26" width="160" height="64" as="geometry" />
        </mxCell>
        <mxCell id="UA6mBIjiZuDujGgCD-i7-14" value="" style="line;strokeWidth=1;fillColor=none;align=left;verticalAlign=middle;spacingTop=-1;spacingLeft=3;spacingRight=3;rotatable=0;labelPosition=right;points=[];portConstraint=eastwest;strokeColor=inherit;" parent="UA6mBIjiZuDujGgCD-i7-12" vertex="1">
          <mxGeometry y="90" width="160" height="8" as="geometry" />
        </mxCell>
        <mxCell id="UA6mBIjiZuDujGgCD-i7-15" value="+editarPerfil()&lt;div&gt;+redefinirMeta()&lt;/div&gt;&lt;div&gt;-getNome()&lt;/div&gt;&lt;div&gt;-getMeta()&lt;/div&gt;&lt;div&gt;&lt;br&gt;&lt;/div&gt;" style="text;strokeColor=none;fillColor=none;align=left;verticalAlign=top;spacingLeft=4;spacingRight=4;overflow=hidden;rotatable=0;points=[[0,0.5],[1,0.5]];portConstraint=eastwest;whiteSpace=wrap;html=1;" parent="UA6mBIjiZuDujGgCD-i7-12" vertex="1">
          <mxGeometry y="98" width="160" height="72" as="geometry" />
        </mxCell>
        <mxCell id="UA6mBIjiZuDujGgCD-i7-17" value="&lt;span style=&quot;font-weight: 400;&quot;&gt;&amp;lt;&amp;lt;Alimento&amp;gt;&amp;gt;&lt;/span&gt;" style="swimlane;fontStyle=1;align=center;verticalAlign=top;childLayout=stackLayout;horizontal=1;startSize=26;horizontalStack=0;resizeParent=1;resizeParentMax=0;resizeLast=0;collapsible=1;marginBottom=0;whiteSpace=wrap;html=1;" parent="WIyWlLk6GJQsqaUBKTNV-1" vertex="1">
          <mxGeometry x="160" y="200" width="160" height="150" as="geometry" />
        </mxCell>
        <mxCell id="UA6mBIjiZuDujGgCD-i7-18" value="&lt;div&gt;&lt;div&gt;-nome: String&lt;/div&gt;&lt;div&gt;-calorias: int&lt;/div&gt;&lt;div&gt;-proteinas: int&lt;/div&gt;&lt;div&gt;-gorduras: int&lt;/div&gt;&lt;div&gt;-carboidratos: int&lt;/div&gt;&lt;div&gt;&lt;br&gt;&lt;div&gt;&lt;br&gt;&lt;/div&gt;&lt;/div&gt;&lt;/div&gt;" style="text;strokeColor=none;fillColor=none;align=left;verticalAlign=top;spacingLeft=4;spacingRight=4;overflow=hidden;rotatable=0;points=[[0,0.5],[1,0.5]];portConstraint=eastwest;whiteSpace=wrap;html=1;" parent="UA6mBIjiZuDujGgCD-i7-17" vertex="1">
          <mxGeometry y="26" width="160" height="84" as="geometry" />
        </mxCell>
        <mxCell id="UA6mBIjiZuDujGgCD-i7-19" value="" style="line;strokeWidth=1;fillColor=none;align=left;verticalAlign=middle;spacingTop=-1;spacingLeft=3;spacingRight=3;rotatable=0;labelPosition=right;points=[];portConstraint=eastwest;strokeColor=inherit;" parent="UA6mBIjiZuDujGgCD-i7-17" vertex="1">
          <mxGeometry y="110" width="160" height="8" as="geometry" />
        </mxCell>
        <mxCell id="UA6mBIjiZuDujGgCD-i7-20" value="+getInfoNutricional()" style="text;strokeColor=none;fillColor=none;align=left;verticalAlign=top;spacingLeft=4;spacingRight=4;overflow=hidden;rotatable=0;points=[[0,0.5],[1,0.5]];portConstraint=eastwest;whiteSpace=wrap;html=1;" parent="UA6mBIjiZuDujGgCD-i7-17" vertex="1">
          <mxGeometry y="118" width="160" height="32" as="geometry" />
        </mxCell>
        <mxCell id="UA6mBIjiZuDujGgCD-i7-21" value="&lt;span style=&quot;font-weight: 400;&quot;&gt;&amp;lt;&amp;lt;AlimentoPersonalizado&amp;gt;&amp;gt;&lt;/span&gt;" style="swimlane;fontStyle=1;align=center;verticalAlign=top;childLayout=stackLayout;horizontal=1;startSize=26;horizontalStack=0;resizeParent=1;resizeParentMax=0;resizeLast=0;collapsible=1;marginBottom=0;whiteSpace=wrap;html=1;" parent="WIyWlLk6GJQsqaUBKTNV-1" vertex="1">
          <mxGeometry x="20" y="380" width="190" height="100" as="geometry" />
        </mxCell>
        <mxCell id="UA6mBIjiZuDujGgCD-i7-22" value="&lt;div&gt;&lt;div&gt;-quantidade: double&lt;br&gt;&lt;div&gt;&lt;br&gt;&lt;/div&gt;&lt;/div&gt;&lt;/div&gt;" style="text;strokeColor=none;fillColor=none;align=left;verticalAlign=top;spacingLeft=4;spacingRight=4;overflow=hidden;rotatable=0;points=[[0,0.5],[1,0.5]];portConstraint=eastwest;whiteSpace=wrap;html=1;" parent="UA6mBIjiZuDujGgCD-i7-21" vertex="1">
          <mxGeometry y="26" width="190" height="34" as="geometry" />
        </mxCell>
        <mxCell id="UA6mBIjiZuDujGgCD-i7-23" value="" style="line;strokeWidth=1;fillColor=none;align=left;verticalAlign=middle;spacingTop=-1;spacingLeft=3;spacingRight=3;rotatable=0;labelPosition=right;points=[];portConstraint=eastwest;strokeColor=inherit;" parent="UA6mBIjiZuDujGgCD-i7-21" vertex="1">
          <mxGeometry y="60" width="190" height="8" as="geometry" />
        </mxCell>
        <mxCell id="UA6mBIjiZuDujGgCD-i7-24" value="+calcularNutrientes()" style="text;strokeColor=none;fillColor=none;align=left;verticalAlign=top;spacingLeft=4;spacingRight=4;overflow=hidden;rotatable=0;points=[[0,0.5],[1,0.5]];portConstraint=eastwest;whiteSpace=wrap;html=1;" parent="UA6mBIjiZuDujGgCD-i7-21" vertex="1">
          <mxGeometry y="68" width="190" height="32" as="geometry" />
        </mxCell>
        <mxCell id="UA6mBIjiZuDujGgCD-i7-59" style="edgeStyle=orthogonalEdgeStyle;rounded=0;orthogonalLoop=1;jettySize=auto;html=1;endArrow=diamond;startFill=0;endFill=1;" parent="WIyWlLk6GJQsqaUBKTNV-1" source="UA6mBIjiZuDujGgCD-i7-28" target="UA6mBIjiZuDujGgCD-i7-22" edge="1">
          <mxGeometry relative="1" as="geometry" />
        </mxCell>
        <mxCell id="UA6mBIjiZuDujGgCD-i7-60" value="0..*" style="edgeLabel;html=1;align=center;verticalAlign=middle;resizable=0;points=[];" parent="UA6mBIjiZuDujGgCD-i7-59" vertex="1" connectable="0">
          <mxGeometry x="-0.6113" y="1" relative="1" as="geometry">
            <mxPoint as="offset" />
          </mxGeometry>
        </mxCell>
        <mxCell id="UA6mBIjiZuDujGgCD-i7-73" value="1" style="edgeLabel;html=1;align=center;verticalAlign=middle;resizable=0;points=[];" parent="UA6mBIjiZuDujGgCD-i7-59" vertex="1" connectable="0">
          <mxGeometry x="0.8075" relative="1" as="geometry">
            <mxPoint as="offset" />
          </mxGeometry>
        </mxCell>
        <mxCell id="UA6mBIjiZuDujGgCD-i7-28" value="&lt;span style=&quot;font-weight: 400;&quot;&gt;&amp;lt;&amp;lt;Refeicao&amp;gt;&amp;gt;&lt;/span&gt;" style="swimlane;fontStyle=1;align=center;verticalAlign=top;childLayout=stackLayout;horizontal=1;startSize=26;horizontalStack=0;resizeParent=1;resizeParentMax=0;resizeLast=0;collapsible=1;marginBottom=0;whiteSpace=wrap;html=1;" parent="WIyWlLk6GJQsqaUBKTNV-1" vertex="1">
          <mxGeometry x="390" y="320" width="160" height="160" as="geometry" />
        </mxCell>
        <mxCell id="UA6mBIjiZuDujGgCD-i7-29" value="&lt;div&gt;-nome: String&lt;/div&gt;&lt;div&gt;-data: Date&lt;/div&gt;&lt;div&gt;-alimentos: list&lt;/div&gt;&lt;div&gt;&lt;br&gt;&lt;div&gt;&lt;br&gt;&lt;/div&gt;&lt;/div&gt;" style="text;strokeColor=none;fillColor=none;align=left;verticalAlign=top;spacingLeft=4;spacingRight=4;overflow=hidden;rotatable=0;points=[[0,0.5],[1,0.5]];portConstraint=eastwest;whiteSpace=wrap;html=1;" parent="UA6mBIjiZuDujGgCD-i7-28" vertex="1">
          <mxGeometry y="26" width="160" height="54" as="geometry" />
        </mxCell>
        <mxCell id="UA6mBIjiZuDujGgCD-i7-30" value="" style="line;strokeWidth=1;fillColor=none;align=left;verticalAlign=middle;spacingTop=-1;spacingLeft=3;spacingRight=3;rotatable=0;labelPosition=right;points=[];portConstraint=eastwest;strokeColor=inherit;" parent="UA6mBIjiZuDujGgCD-i7-28" vertex="1">
          <mxGeometry y="80" width="160" height="8" as="geometry" />
        </mxCell>
        <mxCell id="UA6mBIjiZuDujGgCD-i7-31" value="+adicionarAlimento()&lt;div&gt;+removerAlimento()&lt;/div&gt;&lt;div&gt;+getMacros()&lt;/div&gt;&lt;div&gt;+getTotalCalolrias()&lt;/div&gt;" style="text;strokeColor=none;fillColor=none;align=left;verticalAlign=top;spacingLeft=4;spacingRight=4;overflow=hidden;rotatable=0;points=[[0,0.5],[1,0.5]];portConstraint=eastwest;whiteSpace=wrap;html=1;" parent="UA6mBIjiZuDujGgCD-i7-28" vertex="1">
          <mxGeometry y="88" width="160" height="72" as="geometry" />
        </mxCell>
        <mxCell id="UA6mBIjiZuDujGgCD-i7-32" value="&lt;span style=&quot;font-weight: 400;&quot;&gt;&amp;lt;&amp;lt;HistoricoDiario&amp;gt;&amp;gt;&lt;/span&gt;" style="swimlane;fontStyle=1;align=center;verticalAlign=top;childLayout=stackLayout;horizontal=1;startSize=26;horizontalStack=0;resizeParent=1;resizeParentMax=0;resizeLast=0;collapsible=1;marginBottom=0;whiteSpace=wrap;html=1;" parent="WIyWlLk6GJQsqaUBKTNV-1" vertex="1">
          <mxGeometry x="610" y="250" width="160" height="180" as="geometry" />
        </mxCell>
        <mxCell id="UA6mBIjiZuDujGgCD-i7-33" value="&lt;div&gt;-data: Date&lt;/div&gt;&lt;div&gt;-refeicoes: list&lt;/div&gt;&lt;div&gt;-totalCalorias: float&lt;/div&gt;&lt;div&gt;-totalProteinas: float&lt;/div&gt;&lt;div&gt;-totalCarboidratos: float&lt;/div&gt;&lt;div&gt;-totalGorduras: float&lt;/div&gt;" style="text;strokeColor=none;fillColor=none;align=left;verticalAlign=top;spacingLeft=4;spacingRight=4;overflow=hidden;rotatable=0;points=[[0,0.5],[1,0.5]];portConstraint=eastwest;whiteSpace=wrap;html=1;" parent="UA6mBIjiZuDujGgCD-i7-32" vertex="1">
          <mxGeometry y="26" width="160" height="94" as="geometry" />
        </mxCell>
        <mxCell id="UA6mBIjiZuDujGgCD-i7-34" value="" style="line;strokeWidth=1;fillColor=none;align=left;verticalAlign=middle;spacingTop=-1;spacingLeft=3;spacingRight=3;rotatable=0;labelPosition=right;points=[];portConstraint=eastwest;strokeColor=inherit;" parent="UA6mBIjiZuDujGgCD-i7-32" vertex="1">
          <mxGeometry y="120" width="160" height="8" as="geometry" />
        </mxCell>
        <mxCell id="UA6mBIjiZuDujGgCD-i7-35" value="+salvarTotalDiario()&lt;div&gt;+getResumoData()&lt;/div&gt;" style="text;strokeColor=none;fillColor=none;align=left;verticalAlign=top;spacingLeft=4;spacingRight=4;overflow=hidden;rotatable=0;points=[[0,0.5],[1,0.5]];portConstraint=eastwest;whiteSpace=wrap;html=1;" parent="UA6mBIjiZuDujGgCD-i7-32" vertex="1">
          <mxGeometry y="128" width="160" height="52" as="geometry" />
        </mxCell>
        <mxCell id="UA6mBIjiZuDujGgCD-i7-40" value="&lt;span style=&quot;font-weight: 400;&quot;&gt;&amp;lt;&amp;lt;BancoDeDados&amp;gt;&amp;gt;&lt;/span&gt;" style="swimlane;fontStyle=1;align=center;verticalAlign=top;childLayout=stackLayout;horizontal=1;startSize=26;horizontalStack=0;resizeParent=1;resizeParentMax=0;resizeLast=0;collapsible=1;marginBottom=0;whiteSpace=wrap;html=1;" parent="WIyWlLk6GJQsqaUBKTNV-1" vertex="1">
          <mxGeometry x="180" y="510" width="160" height="130" as="geometry" />
        </mxCell>
        <mxCell id="UA6mBIjiZuDujGgCD-i7-42" value="" style="line;strokeWidth=1;fillColor=none;align=left;verticalAlign=middle;spacingTop=-1;spacingLeft=3;spacingRight=3;rotatable=0;labelPosition=right;points=[];portConstraint=eastwest;strokeColor=inherit;" parent="UA6mBIjiZuDujGgCD-i7-40" vertex="1">
          <mxGeometry y="26" width="160" height="8" as="geometry" />
        </mxCell>
        <mxCell id="UA6mBIjiZuDujGgCD-i7-43" value="+inserirUsuario()&lt;div&gt;+atualizarUsuario()&lt;/div&gt;&lt;div&gt;+inserirAlimento()&lt;/div&gt;&lt;div&gt;+inserirRefeicao()&lt;/div&gt;&lt;div&gt;+consultarHistorico()&lt;/div&gt;" style="text;strokeColor=none;fillColor=none;align=left;verticalAlign=top;spacingLeft=4;spacingRight=4;overflow=hidden;rotatable=0;points=[[0,0.5],[1,0.5]];portConstraint=eastwest;whiteSpace=wrap;html=1;" parent="UA6mBIjiZuDujGgCD-i7-40" vertex="1">
          <mxGeometry y="34" width="160" height="96" as="geometry" />
        </mxCell>
        <mxCell id="UA6mBIjiZuDujGgCD-i7-69" style="edgeStyle=orthogonalEdgeStyle;rounded=0;orthogonalLoop=1;jettySize=auto;html=1;entryX=0;entryY=0.5;entryDx=0;entryDy=0;" parent="WIyWlLk6GJQsqaUBKTNV-1" source="UA6mBIjiZuDujGgCD-i7-44" target="UA6mBIjiZuDujGgCD-i7-13" edge="1">
          <mxGeometry relative="1" as="geometry" />
        </mxCell>
        <mxCell id="UA6mBIjiZuDujGgCD-i7-44" value="&lt;span style=&quot;font-weight: 400;&quot;&gt;&amp;lt;&amp;lt;ControladorUsuario&amp;gt;&amp;gt;&lt;/span&gt;" style="swimlane;fontStyle=1;align=center;verticalAlign=top;childLayout=stackLayout;horizontal=1;startSize=26;horizontalStack=0;resizeParent=1;resizeParentMax=0;resizeLast=0;collapsible=1;marginBottom=0;whiteSpace=wrap;html=1;" parent="WIyWlLk6GJQsqaUBKTNV-1" vertex="1">
          <mxGeometry x="150" y="100" width="160" height="90" as="geometry" />
        </mxCell>
        <mxCell id="UA6mBIjiZuDujGgCD-i7-45" value="" style="line;strokeWidth=1;fillColor=none;align=left;verticalAlign=middle;spacingTop=-1;spacingLeft=3;spacingRight=3;rotatable=0;labelPosition=right;points=[];portConstraint=eastwest;strokeColor=inherit;" parent="UA6mBIjiZuDujGgCD-i7-44" vertex="1">
          <mxGeometry y="26" width="160" height="8" as="geometry" />
        </mxCell>
        <mxCell id="UA6mBIjiZuDujGgCD-i7-46" value="+carregarDadosUsuario()&lt;div&gt;+salvarUsuario()&lt;/div&gt;&lt;div&gt;+carregarMeta()&lt;/div&gt;" style="text;strokeColor=none;fillColor=none;align=left;verticalAlign=top;spacingLeft=4;spacingRight=4;overflow=hidden;rotatable=0;points=[[0,0.5],[1,0.5]];portConstraint=eastwest;whiteSpace=wrap;html=1;" parent="UA6mBIjiZuDujGgCD-i7-44" vertex="1">
          <mxGeometry y="34" width="160" height="56" as="geometry" />
        </mxCell>
        <mxCell id="UA6mBIjiZuDujGgCD-i7-47" value="&lt;span style=&quot;font-weight: 400;&quot;&gt;&amp;lt;&amp;lt;ControladorRefeicao&amp;gt;&amp;gt;&lt;/span&gt;" style="swimlane;fontStyle=1;align=center;verticalAlign=top;childLayout=stackLayout;horizontal=1;startSize=26;horizontalStack=0;resizeParent=1;resizeParentMax=0;resizeLast=0;collapsible=1;marginBottom=0;whiteSpace=wrap;html=1;" parent="WIyWlLk6GJQsqaUBKTNV-1" vertex="1">
          <mxGeometry x="360" y="520" width="160" height="90" as="geometry" />
        </mxCell>
        <mxCell id="UA6mBIjiZuDujGgCD-i7-48" value="" style="line;strokeWidth=1;fillColor=none;align=left;verticalAlign=middle;spacingTop=-1;spacingLeft=3;spacingRight=3;rotatable=0;labelPosition=right;points=[];portConstraint=eastwest;strokeColor=inherit;" parent="UA6mBIjiZuDujGgCD-i7-47" vertex="1">
          <mxGeometry y="26" width="160" height="8" as="geometry" />
        </mxCell>
        <mxCell id="UA6mBIjiZuDujGgCD-i7-49" value="+carregarRefeicao()&lt;div&gt;+calcularTotalCalorias()&lt;/div&gt;&lt;div&gt;+calcularMacros()&lt;/div&gt;" style="text;strokeColor=none;fillColor=none;align=left;verticalAlign=top;spacingLeft=4;spacingRight=4;overflow=hidden;rotatable=0;points=[[0,0.5],[1,0.5]];portConstraint=eastwest;whiteSpace=wrap;html=1;" parent="UA6mBIjiZuDujGgCD-i7-47" vertex="1">
          <mxGeometry y="34" width="160" height="56" as="geometry" />
        </mxCell>
        <mxCell id="UA6mBIjiZuDujGgCD-i7-50" value="&lt;span style=&quot;font-weight: 400;&quot;&gt;&amp;lt;&amp;lt;ControladorAlimento&amp;gt;&amp;gt;&lt;/span&gt;" style="swimlane;fontStyle=1;align=center;verticalAlign=top;childLayout=stackLayout;horizontal=1;startSize=26;horizontalStack=0;resizeParent=1;resizeParentMax=0;resizeLast=0;collapsible=1;marginBottom=0;whiteSpace=wrap;html=1;" parent="WIyWlLk6GJQsqaUBKTNV-1" vertex="1">
          <mxGeometry x="-140" y="260" width="190" height="90" as="geometry" />
        </mxCell>
        <mxCell id="UA6mBIjiZuDujGgCD-i7-51" value="" style="line;strokeWidth=1;fillColor=none;align=left;verticalAlign=middle;spacingTop=-1;spacingLeft=3;spacingRight=3;rotatable=0;labelPosition=right;points=[];portConstraint=eastwest;strokeColor=inherit;" parent="UA6mBIjiZuDujGgCD-i7-50" vertex="1">
          <mxGeometry y="26" width="190" height="8" as="geometry" />
        </mxCell>
        <mxCell id="UA6mBIjiZuDujGgCD-i7-52" value="+buscarPorNome()&lt;div&gt;+criarAlimentoPersonalizado()&lt;/div&gt;" style="text;strokeColor=none;fillColor=none;align=left;verticalAlign=top;spacingLeft=4;spacingRight=4;overflow=hidden;rotatable=0;points=[[0,0.5],[1,0.5]];portConstraint=eastwest;whiteSpace=wrap;html=1;" parent="UA6mBIjiZuDujGgCD-i7-50" vertex="1">
          <mxGeometry y="34" width="190" height="56" as="geometry" />
        </mxCell>
        <mxCell id="UA6mBIjiZuDujGgCD-i7-55" style="edgeStyle=orthogonalEdgeStyle;rounded=0;orthogonalLoop=1;jettySize=auto;html=1;entryX=0.5;entryY=0;entryDx=0;entryDy=0;exitX=1.014;exitY=0.747;exitDx=0;exitDy=0;exitPerimeter=0;endArrow=none;startFill=0;" parent="WIyWlLk6GJQsqaUBKTNV-1" source="UA6mBIjiZuDujGgCD-i7-13" target="UA6mBIjiZuDujGgCD-i7-28" edge="1">
          <mxGeometry relative="1" as="geometry">
            <Array as="points">
              <mxPoint x="560" y="204" />
              <mxPoint x="560" y="280" />
              <mxPoint x="550" y="280" />
              <mxPoint x="550" y="310" />
            </Array>
          </mxGeometry>
        </mxCell>
        <mxCell id="UA6mBIjiZuDujGgCD-i7-56" value="0..*" style="edgeLabel;html=1;align=center;verticalAlign=middle;resizable=0;points=[];" parent="UA6mBIjiZuDujGgCD-i7-55" vertex="1" connectable="0">
          <mxGeometry x="-0.6508" y="2" relative="1" as="geometry">
            <mxPoint as="offset" />
          </mxGeometry>
        </mxCell>
        <mxCell id="UA6mBIjiZuDujGgCD-i7-57" style="edgeStyle=orthogonalEdgeStyle;rounded=0;orthogonalLoop=1;jettySize=auto;html=1;entryX=0.438;entryY=0;entryDx=0;entryDy=0;entryPerimeter=0;endArrow=diamond;startFill=0;endFill=0;" parent="WIyWlLk6GJQsqaUBKTNV-1" source="UA6mBIjiZuDujGgCD-i7-13" target="UA6mBIjiZuDujGgCD-i7-32" edge="1">
          <mxGeometry relative="1" as="geometry" />
        </mxCell>
        <mxCell id="UA6mBIjiZuDujGgCD-i7-58" value="0..*" style="edgeLabel;html=1;align=center;verticalAlign=middle;resizable=0;points=[];" parent="UA6mBIjiZuDujGgCD-i7-57" vertex="1" connectable="0">
          <mxGeometry x="0.713" y="1" relative="1" as="geometry">
            <mxPoint as="offset" />
          </mxGeometry>
        </mxCell>
        <mxCell id="UA6mBIjiZuDujGgCD-i7-75" value="1" style="edgeLabel;html=1;align=center;verticalAlign=middle;resizable=0;points=[];" parent="UA6mBIjiZuDujGgCD-i7-57" vertex="1" connectable="0">
          <mxGeometry x="-0.7971" y="-1" relative="1" as="geometry">
            <mxPoint as="offset" />
          </mxGeometry>
        </mxCell>
        <mxCell id="UA6mBIjiZuDujGgCD-i7-64" value="" style="endArrow=diamond;html=1;rounded=0;exitX=0.477;exitY=-0.014;exitDx=0;exitDy=0;exitPerimeter=0;entryX=0;entryY=0.5;entryDx=0;entryDy=0;startArrow=none;startFill=0;endFill=0;" parent="WIyWlLk6GJQsqaUBKTNV-1" source="UA6mBIjiZuDujGgCD-i7-21" target="UA6mBIjiZuDujGgCD-i7-18" edge="1">
          <mxGeometry width="50" height="50" relative="1" as="geometry">
            <mxPoint x="85" y="360" as="sourcePoint" />
            <mxPoint x="110" y="270" as="targetPoint" />
            <Array as="points">
              <mxPoint x="110" y="268" />
            </Array>
          </mxGeometry>
        </mxCell>
        <mxCell id="UA6mBIjiZuDujGgCD-i7-70" style="edgeStyle=orthogonalEdgeStyle;rounded=0;orthogonalLoop=1;jettySize=auto;html=1;entryX=-0.017;entryY=0.036;entryDx=0;entryDy=0;entryPerimeter=0;exitX=0.842;exitY=0;exitDx=0;exitDy=0;exitPerimeter=0;" parent="WIyWlLk6GJQsqaUBKTNV-1" source="UA6mBIjiZuDujGgCD-i7-50" target="UA6mBIjiZuDujGgCD-i7-18" edge="1">
          <mxGeometry relative="1" as="geometry" />
        </mxCell>
        <mxCell id="UA6mBIjiZuDujGgCD-i7-71" style="edgeStyle=orthogonalEdgeStyle;rounded=0;orthogonalLoop=1;jettySize=auto;html=1;entryX=0.325;entryY=1.003;entryDx=0;entryDy=0;entryPerimeter=0;" parent="WIyWlLk6GJQsqaUBKTNV-1" source="UA6mBIjiZuDujGgCD-i7-47" target="UA6mBIjiZuDujGgCD-i7-31" edge="1">
          <mxGeometry relative="1" as="geometry" />
        </mxCell>
        <mxCell id="UA6mBIjiZuDujGgCD-i7-72" style="edgeStyle=orthogonalEdgeStyle;rounded=0;orthogonalLoop=1;jettySize=auto;html=1;entryX=0.333;entryY=0.006;entryDx=0;entryDy=0;entryPerimeter=0;" parent="WIyWlLk6GJQsqaUBKTNV-1" source="UA6mBIjiZuDujGgCD-i7-52" target="UA6mBIjiZuDujGgCD-i7-21" edge="1">
          <mxGeometry relative="1" as="geometry" />
        </mxCell>
        <mxCell id="UA6mBIjiZuDujGgCD-i7-74" style="edgeStyle=orthogonalEdgeStyle;rounded=0;orthogonalLoop=1;jettySize=auto;html=1;entryX=1.003;entryY=0.386;entryDx=0;entryDy=0;entryPerimeter=0;endArrow=diamond;endFill=1;" parent="WIyWlLk6GJQsqaUBKTNV-1" source="UA6mBIjiZuDujGgCD-i7-33" target="UA6mBIjiZuDujGgCD-i7-29" edge="1">
          <mxGeometry relative="1" as="geometry" />
        </mxCell>
      </root>
    </mxGraphModel>
  </diagram>
</mxfile>
